<mxfile host="app.diagrams.net" modified="2021-04-21T06:06:11.638Z" agent="5.0 (Macintosh; Intel Mac OS X 11_2_2) AppleWebKit/537.36 (KHTML, like Gecko) Chrome/89.0.4389.128 Safari/537.36" etag="smrE_8f2Qv1fJtKe4fAX" version="14.6.1" type="github">
  <diagram id="3LAa1nCkn_cJ9hl6mzLt" name="第 1 页">
    <mxGraphModel dx="1426" dy="680" grid="1" gridSize="10" guides="1" tooltips="1" connect="1" arrows="1" fold="1" page="1" pageScale="1" pageWidth="827" pageHeight="1169" math="0" shadow="0">
      <root>
        <mxCell id="0" />
        <mxCell id="1" parent="0" />
        <mxCell id="fNCVrn049OxTpVAh3JG2-1" value="EventLoopGroup" style="whiteSpace=wrap;html=1;aspect=fixed;" vertex="1" parent="1">
          <mxGeometry x="190" y="70" width="440" height="440" as="geometry" />
        </mxCell>
        <mxCell id="fNCVrn049OxTpVAh3JG2-2" value="EventLoop1" style="rounded=1;whiteSpace=wrap;html=1;" vertex="1" parent="1">
          <mxGeometry x="240" y="140" width="120" height="60" as="geometry" />
        </mxCell>
        <mxCell id="fNCVrn049OxTpVAh3JG2-3" value="EventLoop2" style="rounded=1;whiteSpace=wrap;html=1;" vertex="1" parent="1">
          <mxGeometry x="414" y="140" width="120" height="60" as="geometry" />
        </mxCell>
        <mxCell id="fNCVrn049OxTpVAh3JG2-10" style="edgeStyle=orthogonalEdgeStyle;rounded=0;orthogonalLoop=1;jettySize=auto;html=1;exitX=0.5;exitY=1;exitDx=0;exitDy=0;entryX=0.45;entryY=-0.053;entryDx=0;entryDy=0;entryPerimeter=0;" edge="1" parent="1" source="fNCVrn049OxTpVAh3JG2-4" target="fNCVrn049OxTpVAh3JG2-7">
          <mxGeometry relative="1" as="geometry" />
        </mxCell>
        <mxCell id="fNCVrn049OxTpVAh3JG2-11" style="edgeStyle=orthogonalEdgeStyle;rounded=0;orthogonalLoop=1;jettySize=auto;html=1;exitX=0.25;exitY=1;exitDx=0;exitDy=0;entryX=0.558;entryY=-0.025;entryDx=0;entryDy=0;entryPerimeter=0;" edge="1" parent="1" source="fNCVrn049OxTpVAh3JG2-4" target="fNCVrn049OxTpVAh3JG2-6">
          <mxGeometry relative="1" as="geometry" />
        </mxCell>
        <mxCell id="fNCVrn049OxTpVAh3JG2-12" style="edgeStyle=orthogonalEdgeStyle;rounded=0;orthogonalLoop=1;jettySize=auto;html=1;exitX=0.75;exitY=1;exitDx=0;exitDy=0;entryX=0.442;entryY=0;entryDx=0;entryDy=0;entryPerimeter=0;" edge="1" parent="1" source="fNCVrn049OxTpVAh3JG2-4" target="fNCVrn049OxTpVAh3JG2-8">
          <mxGeometry relative="1" as="geometry" />
        </mxCell>
        <mxCell id="fNCVrn049OxTpVAh3JG2-4" value="EventLoop3" style="rounded=1;whiteSpace=wrap;html=1;" vertex="1" parent="1">
          <mxGeometry x="240" y="370" width="120" height="60" as="geometry" />
        </mxCell>
        <mxCell id="fNCVrn049OxTpVAh3JG2-5" value="EventLoop4" style="rounded=1;whiteSpace=wrap;html=1;" vertex="1" parent="1">
          <mxGeometry x="415" y="370" width="120" height="60" as="geometry" />
        </mxCell>
        <mxCell id="fNCVrn049OxTpVAh3JG2-6" value="Channel" style="ellipse;whiteSpace=wrap;html=1;" vertex="1" parent="1">
          <mxGeometry x="150" y="580" width="120" height="80" as="geometry" />
        </mxCell>
        <mxCell id="fNCVrn049OxTpVAh3JG2-7" value="Channel" style="ellipse;whiteSpace=wrap;html=1;" vertex="1" parent="1">
          <mxGeometry x="295" y="590" width="120" height="75" as="geometry" />
        </mxCell>
        <mxCell id="fNCVrn049OxTpVAh3JG2-8" value="Channel" style="ellipse;whiteSpace=wrap;html=1;" vertex="1" parent="1">
          <mxGeometry x="450" y="585" width="120" height="80" as="geometry" />
        </mxCell>
      </root>
    </mxGraphModel>
  </diagram>
</mxfile>
